<?xml version="1.0" encoding="UTF-8" standalone="no"?>
<!-- Created with Inkscape (http://www.inkscape.org/) -->

<svg
   width="51.773006mm"
   height="68.237892mm"
   viewBox="0 0 51.773006 68.237892"
   version="1.1"
   id="svg1"
   xml:space="preserve"
   xmlns="http://www.w3.org/2000/svg"
   xmlns:svg="http://www.w3.org/2000/svg"><defs
     id="defs1" /><g
     id="layer1"
     transform="translate(-67.019074,-56.919355)"><path
       style="fill:#ffb300;fill-opacity:1;stroke-width:0.264583"
       d="m 90.630836,77.828823 c 9.834104,-3.023892 18.837734,-0.794059 20.717744,4.338332 3.95311,10.219282 1.7171,18.800445 -2.31086,26.817945 -2.95283,5.87748 -8.67053,10.61227 -14.761661,13.09462 -6.899923,2.81197 -15.818383,4.70778 -22.326616,1.08025 -2.946309,-1.6422 -4.712792,-5.67288 -4.899935,-8.85374 -0.25561,-9.99423 1.138571,-11.38592 2.686502,-14.16598 5.115103,-1.099773 5.996549,-2.310831 9.998435,-5.312247 l 7.769807,1.4166 -1.83151,-7.082994 c 3.785665,-5.040327 4.875848,-5.16438 4.958094,-11.332786 z"
       id="path4" /><rect
       style="fill:#4b8b3b;fill-opacity:1;stroke-width:0.264583"
       id="rect4"
       width="1.7529511"
       height="4.1319561"
       x="129.00485"
       y="24.469278"
       transform="rotate(24.132381)" /><path
       style="fill:#4b8b3b;fill-opacity:1;stroke-width:0.264583"
       d="m 108.17407,76.67546 c -1.0935,0.241961 -0.44122,1.622962 -0.11544,2.328495 0.35182,0.761916 1.16964,1.383713 1.99496,1.535825 2.30994,0.425737 5.20038,-0.259622 6.74914,-2.025526 2.01967,-2.302836 2.48537,-6.22153 1.47061,-9.070629 -1.61805,-4.542899 -3.46469,-7.477947 -10.66703,-10.991166 -7.20234,-3.513219 -20.535451,-0.648864 -25.852485,5.143148 -5.317034,5.792012 -5.462888,16.725172 -4.926741,15.665533 3.159272,-6.243983 4.792818,-11.042722 9.678439,-13.838735 5.885672,-3.368337 14.308667,-4.820846 20.280457,-1.607656 4.64826,2.501052 9.5776,8.947833 7.65327,13.862969 -0.58861,1.503419 -3.0229,1.879933 -4.59767,1.523797 -1.30094,-0.294208 -1.57316,-2.663939 -1.66751,-2.526055 z"
       id="path7" /></g></svg>
