<?xml version="1.0" standalone="no"?>
<!DOCTYPE svg PUBLIC "-//W3C//DTD SVG 20010904//EN"
 "http://www.w3.org/TR/2001/REC-SVG-20010904/DTD/svg10.dtd">
<svg version="1.0" xmlns="http://www.w3.org/2000/svg"
 width="500.000000pt" height="500.000000pt" viewBox="0 0 500.000000 500.000000"
 preserveAspectRatio="xMidYMid meet">

<g transform="translate(0.000000,500.000000) scale(0.100000,-0.100000)"
fill="#000000" stroke="none">
<path d="M4727 4350 c-3 -8 -9 -28 -13 -45 l-8 -30 -4 28 -3 27 -30 -17 c-16
-10 -29 -23 -29 -30 0 -18 -20 -66 -26 -61 -2 3 0 17 6 32 8 21 7 27 -2 24 -7
-3 -14 -13 -14 -24 -1 -10 -5 -31 -9 -46 -6 -25 -5 -28 20 -28 15 0 24 -4 20
-10 -11 -17 19 -11 45 10 l25 20 -30 1 c-30 2 -30 2 4 8 36 6 63 39 76 91 7
29 -20 76 -28 50z"/>
<path d="M4637 4018 c-99 -132 -233 -279 -194 -213 54 92 47 86 -39 -30 -32
-44 -61 -82 -64 -85 -3 -3 -27 -32 -55 -65 -194 -231 -517 -462 -905 -648
-565 -269 -1006 -409 -1465 -462 -253 -29 -863 -14 -831 21 6 6 14 10 18 8 16
-10 58 22 74 57 9 22 23 44 31 50 20 17 16 25 -20 42 -28 14 -35 14 -54 2 -16
-11 -54 -15 -140 -15 -379 -1 -475 -63 -223 -144 41 -14 111 -32 155 -41 44
-10 89 -21 100 -25 11 -5 45 -11 75 -15 30 -3 109 -12 175 -21 156 -19 492
-19 655 1 318 37 619 114 960 243 308 117 675 294 863 416 261 169 537 438
784 764 92 120 197 272 189 272 -2 0 -42 -51 -89 -112z m-3557 -1363 c0 -3 -7
-17 -16 -30 -10 -16 -15 -38 -12 -61 l4 -36 -57 6 c-127 13 -309 61 -316 83
-4 11 88 30 182 36 92 6 215 7 215 2z"/>
<path d="M4546 3983 c-6 -14 -5 -15 5 -6 7 7 10 15 7 18 -3 3 -9 -2 -12 -12z"/>
<path d="M2772 2794 c-309 -144 -706 -241 -1064 -260 -74 -4 -128 -11 -128
-17 0 -13 254 -1 415 19 155 20 323 57 455 101 100 33 343 143 392 177 35 25
10 18 -70 -20z"/>
<path d="M4067 2526 c-31 -7 -63 -18 -70 -25 -10 -10 3 -11 63 -4 232 25 367
-8 386 -95 3 -15 7 -32 9 -37 6 -22 -16 -130 -29 -140 -7 -5 -16 -28 -20 -50
-10 -51 -73 -176 -137 -271 -77 -114 -220 -279 -288 -331 -29 -23 -35 -24 -45
-11 -6 8 -21 20 -33 27 -13 6 -23 18 -23 26 0 9 -6 12 -15 9 -8 -4 -15 -2 -15
3 0 5 -10 9 -21 10 -12 1 -29 9 -38 17 -9 8 -32 21 -51 29 -19 9 -29 16 -22
16 19 1 4 21 -16 21 -16 0 -35 8 -144 60 -21 10 -38 14 -38 9 0 -12 -37 -12
-44 0 -3 5 -23 11 -43 14 -21 3 -67 12 -103 20 -118 29 -224 46 -310 52 -47 4
-94 11 -105 16 -63 28 -300 33 -470 9 -38 -5 -99 -13 -135 -18 -36 -5 -83 -14
-105 -20 -22 -6 -67 -14 -100 -17 -33 -4 -85 -14 -115 -22 -30 -8 -77 -19
-103 -23 -26 -5 -57 -12 -67 -15 -28 -9 -260 -47 -297 -49 -17 0 -35 -4 -39
-8 -13 -14 -44 -8 -44 8 0 13 -7 15 -42 9 -24 -4 -51 -11 -60 -16 -9 -5 -27
-9 -40 -9 -29 0 -178 -59 -178 -71 0 -5 -13 -9 -29 -9 -16 0 -34 -6 -40 -13
-6 -8 -29 -20 -51 -27 -22 -7 -40 -17 -40 -22 0 -15 -42 -46 -71 -53 -15 -3
-35 -15 -45 -26 -9 -10 -27 -19 -39 -19 -29 0 -58 -32 -45 -48 6 -7 7 -10 4
-7 -14 10 -45 -17 -39 -33 3 -9 3 -13 -1 -9 -4 4 -14 1 -23 -6 -14 -10 -14
-10 -3 4 11 15 9 16 -15 15 -16 -1 -34 -5 -42 -10 -11 -7 -13 -5 -7 9 5 14 4
16 -7 6 -11 -8 -27 -6 -68 11 -57 23 -82 38 -61 38 7 0 12 4 12 9 0 5 -24 12
-52 16 -68 9 -124 34 -173 76 -49 43 -115 126 -115 145 0 19 59 44 102 44 45
0 79 -10 72 -21 -11 -18 9 -8 71 36 48 35 155 85 181 85 1 0 4 -15 6 -32 5
-56 23 -32 30 40 13 130 64 223 146 274 20 12 39 25 42 28 3 3 31 14 62 25 69
23 70 31 2 14 -164 -40 -241 -112 -269 -248 -10 -53 -11 -55 -60 -71 -74 -25
-126 -54 -159 -88 -27 -29 -30 -30 -100 -25 -127 10 -183 -36 -141 -114 39
-72 182 -193 228 -193 8 0 59 -22 113 -49 54 -27 135 -61 179 -76 159 -53 192
-57 490 -60 154 -2 411 -11 570 -21 439 -26 828 -23 1210 9 331 29 599 47 680
47 l50 -1 -35 -29 c-81 -67 -340 -222 -550 -328 -124 -63 -227 -116 -228 -117
-2 -2 5 -8 17 -14 16 -9 36 -5 98 20 87 34 350 162 428 207 104 60 235 143
307 195 99 71 94 69 123 61 25 -6 25 -6 -17 -39 -64 -48 -270 -183 -380 -249
-54 -32 -98 -61 -98 -63 0 -17 340 188 484 292 l79 57 71 -7 c39 -3 150 -18
246 -32 210 -30 383 -33 484 -9 72 17 215 79 266 116 28 20 30 25 30 91 0 67
-1 70 -40 109 -22 22 -44 40 -49 40 -4 0 -11 21 -14 48 -20 166 -137 294 -290
317 -31 5 -51 13 -54 24 -3 9 -21 49 -40 89 l-34 73 15 69 c39 170 0 270 -118
305 -60 18 -227 19 -309 1z m450 -543 c46 -93 48 -96 53 -65 l5 32 71 -34
c123 -59 166 -117 210 -284 15 -53 28 -99 31 -102 2 -2 8 2 13 10 21 34 80
-57 80 -124 0 -34 -1 -35 -92 -70 -157 -60 -239 -78 -368 -78 -130 0 -291 18
-301 34 -4 5 -17 7 -30 4 -13 -3 -18 -3 -11 0 16 8 15 33 -2 40 -8 3 -16 14
-19 25 -3 10 -16 23 -29 28 -13 5 -30 16 -37 25 -12 14 -12 16 3 10 12 -5 15
-2 10 10 -7 19 6 21 26 4 13 -11 13 -11 3 2 -17 19 -16 30 1 30 8 0 18 5 22
12 4 7 3 8 -4 4 -19 -12 -14 12 6 26 34 26 144 179 202 281 40 71 33 75 -11 5
-73 -115 -252 -318 -280 -318 -19 0 -7 20 49 82 129 143 221 275 295 424 23
46 45 84 49 84 4 0 29 -44 55 -97z m-462 -502 c3 -5 2 -12 -3 -15 -5 -3 -9 1
-9 9 0 17 3 19 12 6z m-3380 -101 c3 -6 -1 -7 -9 -4 -18 7 -21 14 -7 14 6 0
13 -4 16 -10z m60 -28 c-3 -3 -11 0 -18 7 -9 10 -8 11 6 5 10 -3 15 -9 12 -12z"/>
<path d="M4110 1420 c0 -5 5 -10 10 -10 6 0 10 5 10 10 0 6 -4 10 -10 10 -5 0
-10 -4 -10 -10z"/>
<path d="M4248 1313 c7 -3 16 -2 19 1 4 3 -2 6 -13 5 -11 0 -14 -3 -6 -6z"/>
<path d="M966 2287 c3 -10 9 -15 12 -12 3 3 0 11 -7 18 -10 9 -11 8 -5 -6z"/>
<path d="M956 2244 c-4 -9 -4 -19 -1 -22 2 -3 7 3 11 12 4 9 4 19 1 22 -2 3
-7 -3 -11 -12z"/>
<path d="M3951 1574 c0 -11 3 -14 6 -6 3 7 2 16 -1 19 -3 4 -6 -2 -5 -13z"/>
<path d="M2923 733 c-37 -40 -38 -44 -20 -61 6 -7 12 -18 12 -25 0 -14 46 -38
59 -30 5 4 22 7 38 8 36 3 96 49 104 80 8 34 -2 48 -27 35 -15 -8 -19 -8 -17
2 2 9 -11 13 -44 13 -25 0 -44 3 -41 8 2 4 -4 7 -14 6 -10 0 -33 -16 -50 -36z"/>
<path d="M2575 714 c-33 -14 -136 -50 -230 -80 -223 -73 -229 -75 -185 -68 48
8 299 77 414 114 72 23 94 34 89 45 -7 19 -16 18 -88 -11z"/>
</g>
</svg>
